<?xml version="1.0" encoding="UTF-8" standalone="no"?>
<!-- Created with Inkscape (http://www.inkscape.org/) -->

<svg
   width="54.413158mm"
   height="54.412918mm"
   viewBox="0 0 54.413158 54.412918"
   version="1.1"
   id="svg5"
   xml:space="preserve"
   inkscape:version="1.2.2 (b0a84865, 2022-12-01)"
   sodipodi:docname="neo.svg"
   xmlns:inkscape="http://www.inkscape.org/namespaces/inkscape"
   xmlns:sodipodi="http://sodipodi.sourceforge.net/DTD/sodipodi-0.dtd"
   xmlns:xlink="http://www.w3.org/1999/xlink"
   xmlns="http://www.w3.org/2000/svg"
   xmlns:svg="http://www.w3.org/2000/svg"><sodipodi:namedview
     id="namedview7"
     pagecolor="#ffffff"
     bordercolor="#000000"
     borderopacity="0.25"
     inkscape:showpageshadow="2"
     inkscape:pageopacity="0.0"
     inkscape:pagecheckerboard="0"
     inkscape:deskcolor="#d1d1d1"
     inkscape:document-units="mm"
     showgrid="false"
     inkscape:zoom="2.6703445"
     inkscape:cx="103.17021"
     inkscape:cy="135.37579"
     inkscape:window-width="2560"
     inkscape:window-height="1387"
     inkscape:window-x="0"
     inkscape:window-y="25"
     inkscape:window-maximized="1"
     inkscape:current-layer="g9470"
     inkscape:lockguides="true" /><defs
     id="defs2"><linearGradient
       inkscape:collect="always"
       id="linearGradient1225"><stop
         style="stop-color:#000000;stop-opacity:0.47963801;"
         offset="0"
         id="stop1221" /><stop
         style="stop-color:#000000;stop-opacity:0;"
         offset="1"
         id="stop1223" /></linearGradient><linearGradient
       inkscape:collect="always"
       id="linearGradient2824"><stop
         style="stop-color:#d4d4d4;stop-opacity:1;"
         offset="0"
         id="stop2820" /><stop
         style="stop-color:#ffffff;stop-opacity:1;"
         offset="1"
         id="stop2822" /></linearGradient><rect
       x="17.84306"
       y="18.222698"
       width="175.39348"
       height="160.96718"
       id="rect515" /><linearGradient
       inkscape:collect="always"
       xlink:href="#linearGradient2824"
       id="linearGradient2826"
       x1="128.87511"
       y1="167.79993"
       x2="110.10815"
       y2="146.77769"
       gradientUnits="userSpaceOnUse" /><linearGradient
       inkscape:collect="always"
       xlink:href="#linearGradient1225"
       id="linearGradient1227"
       x1="86.166397"
       y1="119.5034"
       x2="135.28192"
       y2="176.35216"
       gradientUnits="userSpaceOnUse" /></defs><g
     inkscape:label="Layer 1"
     inkscape:groupmode="layer"
     id="layer1"
     transform="translate(-83.966507,-118.61145)"><g
       id="g9470"
       inkscape:export-filename="g9470.svg"
       inkscape:export-xdpi="96"
       inkscape:export-ydpi="96"><rect
         style="fill:#450ca0;fill-opacity:1;stroke:none;stroke-width:0.265;stroke-linejoin:round;stroke-dasharray:none;stroke-opacity:1"
         id="rect1580"
         width="54.412918"
         height="54.412918"
         x="83.966507"
         y="-173.02437"
         transform="scale(1,-1)"
         rx="4"
         ry="4" /><text
         xml:space="preserve"
         transform="matrix(0.26458333,0,0,0.26458333,83.895134,118.61145)"
         id="text513"
         style="white-space:pre;shape-inside:url(#rect515);display:inline;opacity:0.5;fill:#ff00ff;stroke-width:1.00157;stroke-linejoin:round" /><path
         id="text594"
         style="font-style:normal;font-variant:normal;font-weight:normal;font-stretch:normal;font-size:53.3153px;font-family:Montserrat;-inkscape-font-specification:Montserrat;display:inline;opacity:1;fill:url(#linearGradient1227);fill-opacity:1;stroke-width:4.44991;stroke-linejoin:round"
         d="m 126.94353,128.89154 -0.003,0.003 h -5.1e-4 L 123.05929,133.1 v 18.24312 c 0,0.0701 -0.002,0.13945 -0.005,0.20865 -0.003,0.0692 -0.007,0.13783 -0.0143,0.20603 -0.007,0.0682 -0.015,0.13621 -0.025,0.20341 -0.01,0.0671 -0.0216,0.13376 -0.0347,0.19976 -0.0131,0.066 -0.0277,0.13139 -0.0439,0.19609 -0.0162,0.0647 -0.0339,0.12851 -0.0531,0.19191 -0.0192,0.0635 -0.0402,0.12678 -0.0623,0.18878 -0.0221,0.0621 -0.0456,0.12294 -0.0705,0.18354 -0.0249,0.0606 -0.0515,0.12037 -0.0791,0.17937 -0.0277,0.059 -0.0564,0.11725 -0.0868,0.17465 -0.0304,0.0574 -0.062,0.11383 -0.095,0.16943 -0.0329,0.0556 -0.0672,0.11039 -0.10264,0.16419 -0.0354,0.0539 -0.0719,0.10707 -0.1098,0.15897 -0.0382,0.0516 -0.0773,0.10269 -0.11746,0.15269 -0.0404,0.0497 -0.0819,0.0987 -0.1246,0.14642 -0.0426,0.0477 -0.0861,0.0943 -0.13074,0.14014 -0.0448,0.0456 -0.09,0.0905 -0.13686,0.13387 -0.0468,0.0434 -0.0947,0.0859 -0.1435,0.12707 -0.0488,0.0412 -0.0984,0.081 -0.14912,0.11975 -0.0507,0.0387 -0.10214,0.0767 -0.15474,0.11295 -0.0525,0.0363 -0.10595,0.0714 -0.16035,0.10511 -0.0543,0.0337 -0.11007,0.0661 -0.16597,0.0973 -0.056,0.0311 -0.11246,0.0605 -0.17006,0.0889 -0.0576,0.0284 -0.11596,0.0555 -0.17516,0.0811 -0.0592,0.0256 -0.11916,0.0496 -0.17976,0.0722 -0.0606,0.0227 -0.12185,0.0437 -0.18385,0.0633 -0.0619,0.0197 -0.12463,0.0378 -0.18793,0.0544 -0.0633,0.0166 -0.1271,0.0321 -0.1915,0.0455 -0.0645,0.0134 -0.12948,0.0248 -0.19508,0.035 -0.0656,0.0102 -0.13155,0.0186 -0.19815,0.0256 -0.0666,0.007 -0.13361,0.0127 -0.20121,0.0157 -0.0675,0.003 -0.13587,0.005 -0.20427,0.005 h -3.87147 c -0.0684,0 -0.13626,-0.002 -0.20376,-0.005 -0.0676,-0.004 -0.13512,-0.009 -0.20172,-0.0157 -0.0666,-0.007 -0.13254,-0.0154 -0.19814,-0.0256 -0.0655,-0.0101 -0.13068,-0.0216 -0.19508,-0.035 -0.0644,-0.0134 -0.12831,-0.0289 -0.19151,-0.0455 -0.0633,-0.0166 -0.12593,-0.0348 -0.18793,-0.0544 -0.062,-0.0197 -0.12325,-0.0407 -0.18385,-0.0633 -0.0606,-0.0227 -0.12004,-0.0467 -0.17924,-0.0722 -0.0591,-0.0256 -0.11808,-0.0528 -0.17568,-0.0811 -0.0576,-0.0283 -0.11406,-0.0578 -0.17006,-0.0889 -0.056,-0.0311 -0.11167,-0.0636 -0.16597,-0.0973 -0.0543,-0.0337 -0.10775,-0.0688 -0.16035,-0.10511 -0.0526,-0.0363 -0.10404,-0.0742 -0.15474,-0.11295 -0.0507,-0.0387 -0.10032,-0.0786 -0.14912,-0.11975 -0.0487,-0.0412 -0.0967,-0.0836 -0.1435,-0.12707 -0.0468,-0.0435 -0.0922,-0.0882 -0.13686,-0.13387 -0.0446,-0.0457 -0.0882,-0.0922 -0.13073,-0.14014 -0.0424,-0.0478 -0.0839,-0.097 -0.1241,-0.14694 -0.0403,-0.0499 -0.0796,-0.10079 -0.11746,-0.15269 -0.0379,-0.0519 -0.0744,-0.10517 -0.10979,-0.15897 -0.0355,-0.0538 -0.0697,-0.1086 -0.10265,-0.1642 -0.033,-0.0556 -0.0646,-0.11202 -0.095,-0.16942 -0.0304,-0.0574 -0.0591,-0.11566 -0.0868,-0.17466 -0.0277,-0.059 -0.0542,-0.11876 -0.0792,-0.17936 -0.0249,-0.0605 -0.0484,-0.12154 -0.0705,-0.18354 -0.0221,-0.0621 -0.0431,-0.12538 -0.0623,-0.18878 -0.0192,-0.0635 -0.0369,-0.12711 -0.0531,-0.19191 -0.0162,-0.0648 -0.0308,-0.1301 -0.0439,-0.1961 -0.0131,-0.066 -0.0247,-0.13265 -0.0347,-0.19975 -0.01,-0.0671 -0.018,-0.13522 -0.025,-0.20342 -0.007,-0.0682 -0.0118,-0.13683 -0.0148,-0.20603 -0.003,-0.0692 -0.005,-0.13854 -0.005,-0.20864 l 5.1e-4,-5.48125 -2.25823,2.44674 V 141.644 H 96.820506 v 17.30813 h 2.381306 l -6.451943,6.99092 -0.121032,0.13125 0.121032,0.11662 0.02604,0.0246 9.224431,8.86978 h 30.79713 c 2.18991,0 3.95318,-1.80501 3.95318,-4.04741 v -32.7165 l -9.77239,-9.39635 -0.0317,-0.0303 z m -8.4962,0.003 v 22.6414 5.2e-4 h 5.1e-4 v -22.64192 z"
         transform="scale(1.0119123,0.98822793)" /><text
         xml:space="preserve"
         style="font-style:normal;font-variant:normal;font-weight:normal;font-stretch:normal;font-size:53.3153px;font-family:Montserrat;-inkscape-font-specification:Montserrat;display:inline;opacity:1;fill:#ffffff;fill-opacity:1;stroke-width:4.44991;stroke-linejoin:round"
         x="88.324852"
         y="166.21529"
         id="text1107"
         transform="matrix(1.0119123,0,0,0.98822793,2.7083334e-7,1.0833334e-6)"><tspan
           sodipodi:role="line"
           id="tspan1105"
           style="font-style:normal;font-variant:normal;font-weight:bold;font-stretch:normal;font-family:Montserrat;-inkscape-font-specification:'Montserrat Bold';fill:#ffffff;fill-opacity:1;stroke-width:4.44993"
           x="88.324852"
           y="166.21529">N</tspan></text><text
         xml:space="preserve"
         style="font-style:normal;font-variant:normal;font-weight:normal;font-stretch:normal;font-size:53.3153px;font-family:Montserrat;-inkscape-font-specification:Montserrat;display:inline;opacity:1;fill:url(#linearGradient2826);fill-opacity:1;stroke-width:4.44991;stroke-linejoin:round"
         x="88.324852"
         y="166.21529"
         id="text2494"
         transform="scale(1.0119123,0.98822793)"><tspan
           sodipodi:role="line"
           id="tspan2492"
           style="font-style:normal;font-variant:normal;font-weight:bold;font-stretch:normal;font-family:Montserrat;-inkscape-font-specification:'Montserrat Bold';fill:url(#linearGradient2826);fill-opacity:1;stroke-width:4.44993"
           x="88.324852"
           y="166.21529">N</tspan></text></g></g></svg>
